<svg id="Capa_1" data-name="Capa 1" xmlns="http://www.w3.org/2000/svg" width="271" height="24" viewBox="0 0 271 24"><title>logoWhite</title><g id="Page-1"><g id="Homepage---Vista"><g id="Navigation---OPEN-"><path id="Logo---Blue" d="M5.1,1.9a7,7,0,0,0-.3,2.4V18.6A7,7,0,0,0,5.1,21a3.1,3.1,0,0,0,1,1.5H0A3.1,3.1,0,0,0,1,21a7,7,0,0,0,.3-2.4V4.3A7,7,0,0,0,1,1.9,3.6,3.6,0,0,0,0,.4H6.1a3.6,3.6,0,0,0-1,1.5Zm8.6,19.9A9.6,9.6,0,0,1,11,18.9l-5.7-8L10.5,4l.8-1.2a3.1,3.1,0,0,0,.2-.8,1.2,1.2,0,0,0-.2-.8,3.3,3.3,0,0,0-.6-.8h5.5L9.1,10.3l6.5,9.1,1.1,1.3,1.8,1.8H16.6a5.4,5.4,0,0,1-2.9-.7ZM24.2,21a2.5,2.5,0,0,0,1,1.5H19.1a4,4,0,0,0,1-1.5,7,7,0,0,0,.3-2.4V4.3a7,7,0,0,0-.3-2.4,4.9,4.9,0,0,0-1-1.5h6.1a2.9,2.9,0,0,0-1,1.5,7,7,0,0,0-.3,2.4V18.6a7,7,0,0,0,.3,2.4Zm21.2,1.5a3.9,3.9,0,0,1-2.3-.7,6.5,6.5,0,0,1-2-1.7L34.6,11a9.6,9.6,0,0,0,4.3-1.8,3.5,3.5,0,0,0,1.3-2.9A3.4,3.4,0,0,0,39,3.6a4.2,4.2,0,0,0-3-1H35l-1.4.2V18.6a7,7,0,0,0,.3,2.4,3.1,3.1,0,0,0,1,1.5H28.8a3.1,3.1,0,0,0,1-1.5,7,7,0,0,0,.3-2.4V4.3a7,7,0,0,0-.3-2.4,3.6,3.6,0,0,0-1-1.5h7.7A8.8,8.8,0,0,1,41.8,2a4.9,4.9,0,0,1,2,4,4.7,4.7,0,0,1-1.2,3.2,10.4,10.4,0,0,1-3.8,2.5l5.8,7.6,1.2,1.4c.5.5,1,1.1,1.6,1.6l-1.7.2ZM53.6,1.9a7,7,0,0,0-.3,2.4V18.6a7,7,0,0,0,.3,2.4,3.3,3.3,0,0,0,1.1,1.5H48.5A3.3,3.3,0,0,0,49.6,21a7,7,0,0,0,.3-2.4V4.3a7,7,0,0,0-.3-2.4A3.9,3.9,0,0,0,48.5.4h6.2a3.9,3.9,0,0,0-1.1,1.5Zm8.7,19.9a8.5,8.5,0,0,1-2.7-2.9l-5.7-8L59,4a12.3,12.3,0,0,0,.8-1.2,1.6,1.6,0,0,0,.3-.8,2.4,2.4,0,0,0-.2-.8L59.2.4h5.6l-7.1,9.9,6.5,9.1a9.1,9.1,0,0,0,1,1.3L67,22.5H65.2a5,5,0,0,1-2.9-.7Zm5.2.7a3.1,3.1,0,0,0,1-1.5,7,7,0,0,0,.3-2.4V4.3a8.1,8.1,0,0,0-.3-2.5,4.1,4.1,0,0,0-1-1.4h6.1a4.1,4.1,0,0,0-1,1.4,8.1,8.1,0,0,0-.3,2.5V19.6l2.3.3h1.8a10.6,10.6,0,0,0,3.1-.5,10.1,10.1,0,0,0,3-1.4l-1.6,4.4Zm24.9-19L89,12h6.5Zm5.5,18.9a2.9,2.9,0,0,0,.8-1.4,6.4,6.4,0,0,0-.3-1.5v-.2l-1.9-5.1H88.2L86,19.5a6.4,6.4,0,0,0-.2.7c0,.2-.1.5-.1.7a1.1,1.1,0,0,0,.3.7,2.8,2.8,0,0,0,.7.9H81.5a6.8,6.8,0,0,0,1.2-1.2,15.6,15.6,0,0,0,1-2.2L89.9,3.4a1.6,1.6,0,0,0,.3-.9,2,2,0,0,0,.1-.7.8.8,0,0,0-.2-.7L89.5.4h5.1l7,18.5a7.5,7.5,0,0,0,1.1,2,7,7,0,0,0,1.4,1.6H97.9Zm27-20.5a7,7,0,0,0-.3,2.4V23a4.5,4.5,0,0,1-2.2-.8,9.6,9.6,0,0,1-2.6-2.7L108.3,5.2V18.6a7.7,7.7,0,0,0,.3,2.5,3.3,3.3,0,0,0,1,1.4h-5a4,4,0,0,0,1-1.5,7,7,0,0,0,.3-2.4V4.3a7,7,0,0,0-.3-2.4,4.9,4.9,0,0,0-1-1.5h4.5L122.2,17V4.3a7,7,0,0,0-.3-2.4,4.9,4.9,0,0,0-1-1.5h5a3.6,3.6,0,0,0-1,1.5Zm18.9,3.2a9.1,9.1,0,0,0-6.4-2.3h-1.7l-1.7.3V19.8l2.1.3h1.5a7.9,7.9,0,0,0,6.1-2.5,8.2,8.2,0,0,0,2.5-6.3,8.5,8.5,0,0,0-2.4-6.3Zm3,13.7a9.5,9.5,0,0,1-4.3,2.8,20.2,20.2,0,0,1-6.6.9h-6.6a4.5,4.5,0,0,0,1-1.4,8.3,8.3,0,0,0,.2-2.5V4.3a8.3,8.3,0,0,0-.2-2.5,4.5,4.5,0,0,0-1-1.4H137a17.8,17.8,0,0,1,5.1.6,11.6,11.6,0,0,1,3.8,2,11.2,11.2,0,0,1,2.9,3.6,11,11,0,0,1,.9,4.5,11.6,11.6,0,0,1-.7,4.2,9.9,9.9,0,0,1-2.2,3.5ZM169,11.2a12.8,12.8,0,0,0-2.3,2.5,5.5,5.5,0,0,0-.7,2.5,4.2,4.2,0,0,0,1.3,3.1,4.3,4.3,0,0,0,3.1,1.2,5.3,5.3,0,0,0,2.8-.7,8,8,0,0,0,2.4-2.2Zm2.8-7.1a2,2,0,0,0-.6-1.5,2.5,2.5,0,0,0-1.7-.6,2.1,2.1,0,0,0-2.1,2.1,3,3,0,0,0,.5,1.4,9.3,9.3,0,0,0,1.7,1.9,5.9,5.9,0,0,0,1.6-1.5,3.2,3.2,0,0,0,.6-1.8Zm8.8,17.6a14.3,14.3,0,0,1-3.5-2.6,9.3,9.3,0,0,1-3.4,2.9,9.1,9.1,0,0,1-4,1,7.7,7.7,0,0,1-5.2-1.9,6.1,6.1,0,0,1-2.1-4.7,6.6,6.6,0,0,1,1.1-3.5A16.6,16.6,0,0,1,167,9.2a12,12,0,0,1-1.9-2.6,4.9,4.9,0,0,1-.6-2.2A3.9,3.9,0,0,1,166,1.3,5.5,5.5,0,0,1,169.8,0a4.7,4.7,0,0,1,3.4,1.3,4,4,0,0,1,1.3,3.1,4.4,4.4,0,0,1-.7,2.4,10.2,10.2,0,0,1-2.2,2.6l7.8,7.5a38.4,38.4,0,0,0,3.2,2.6l4.6,3h-3a8.6,8.6,0,0,1-3.6-.8Zm21.8-1.8h1.7a11.3,11.3,0,0,0,3.2-.5,10.1,10.1,0,0,0,3-1.4l-1.6,4.4H195.3a3.1,3.1,0,0,0,1-1.5,7,7,0,0,0,.3-2.4V4.3a7,7,0,0,0-.3-2.4,3.6,3.6,0,0,0-1-1.5h12.1V3.9a5.1,5.1,0,0,0-1.8-.9,7.3,7.3,0,0,0-2.2-.3h-1.5l-1.8.3V9.3h5.4v3.2a1.7,1.7,0,0,0-1-.6l-2.4-.2h-2v7.9l2.3.3Zm10,2.6a3.3,3.3,0,0,0,1.1-1.5,7,7,0,0,0,.3-2.4V4.3a8.1,8.1,0,0,0-.3-2.5A4.5,4.5,0,0,0,212.4.4h6.2a4.5,4.5,0,0,0-1.1,1.4,8.1,8.1,0,0,0-.3,2.5V19.6l2.3.3h1.8a11.3,11.3,0,0,0,3.2-.5,8.6,8.6,0,0,0,2.9-1.4l-1.5,4.4Zm16.9,0a3.1,3.1,0,0,0,1-1.5,7,7,0,0,0,.3-2.4V4.3a8.1,8.1,0,0,0-.3-2.5,4.1,4.1,0,0,0-1-1.4h6.1a4.1,4.1,0,0,0-1,1.4,8.1,8.1,0,0,0-.3,2.5V19.6l2.3.3h1.8a10.6,10.6,0,0,0,3.1-.5,9.1,9.1,0,0,0,3-1.4l-1.5,4.4ZM251.4,21a3.1,3.1,0,0,0,1,1.5h-6.1a3.1,3.1,0,0,0,1-1.5,7,7,0,0,0,.3-2.4V4.3a7,7,0,0,0-.3-2.4,3.6,3.6,0,0,0-1-1.5h6.1a3.6,3.6,0,0,0-1,1.5,7,7,0,0,0-.3,2.4V18.6a7,7,0,0,0,.3,2.4Zm17,.1a10.7,10.7,0,0,1-6.5,2l-2.7-.3L256,22l-1-4a16.3,16.3,0,0,0,3.7,1.9,11.3,11.3,0,0,0,3.6.6,6.4,6.4,0,0,0,3.6-.9,2.9,2.9,0,0,0,1.4-2.6,2.8,2.8,0,0,0-.1-.9,3,3,0,0,0-.4-.8c-.4-.6-1.8-1.5-4.1-2.6l-1.3-.6a15.6,15.6,0,0,1-4.5-3,4.8,4.8,0,0,1-1.2-3.3,5.1,5.1,0,0,1,2.2-4.2,9.9,9.9,0,0,1,6-1.6h2.5l2.8.5V4.3a9.1,9.1,0,0,0-2.7-1.5,7.2,7.2,0,0,0-2.9-.6,4.5,4.5,0,0,0-3,.9,2.4,2.4,0,0,0-1.2,2.1,2.8,2.8,0,0,0,.9,2,17.3,17.3,0,0,0,4.1,2.4l.5.2a25.3,25.3,0,0,1,4,2.3,5.5,5.5,0,0,1,1.6,1.8,6.9,6.9,0,0,1,.5,2.4,5.9,5.9,0,0,1-2.6,4.8Z" fill="#fff" fill-rule="evenodd"/></g></g></g></svg>